<?xml version="1.0" standalone="no"?>
<!DOCTYPE svg PUBLIC "-//W3C//DTD SVG 20010904//EN"
 "http://www.w3.org/TR/2001/REC-SVG-20010904/DTD/svg10.dtd">
<svg version="1.0" xmlns="http://www.w3.org/2000/svg"
 width="260.000000pt" height="260.000000pt" viewBox="0 0 260.000000 260.000000"
 preserveAspectRatio="xMidYMid meet">
<metadata>
Created by potrace 1.11, written by Peter Selinger 2001-2013
</metadata>
<g transform="translate(0.000000,260.000000) scale(0.100000,-0.100000)"
fill="#000000" stroke="none">
<path d="M0 1300 l0 -1300 1300 0 1300 0 0 1300 0 1300 -1300 0 -1300 0 0
-1300z m1892 937 c32 -23 61 -49 65 -57 10 -22 16 -472 7 -560 -7 -74 -7 -74
-15 -32 -4 23 -11 47 -14 52 -7 11 -33 3 -56 -17 -15 -13 -17 -10 -20 34 -6
71 5 262 13 236 3 -13 11 -23 17 -23 6 0 11 10 11 23 0 12 5 29 10 37 7 11 10
0 10 -37 0 -28 4 -54 9 -57 9 -6 21 136 21 256 0 66 -3 78 -16 78 -10 0 -39
20 -65 45 -26 25 -53 45 -59 45 -5 0 -10 5 -10 10 0 21 37 8 92 -33z m185 13
c-14 -23 -37 -26 -37 -5 0 15 30 36 42 29 4 -3 2 -14 -5 -24z m-1207 -40 c0
-5 -5 -22 -11 -37 -19 -47 -26 -67 -39 -103 -7 -19 -17 -46 -22 -60 -14 -33
-32 -74 -34 -78 -1 -2 -12 2 -25 8 -17 10 -31 9 -63 -1 -23 -7 -45 -16 -50
-21 -6 -4 -24 -8 -40 -8 l-31 1 35 26 c48 36 211 203 241 247 23 35 39 45 39
26z m286 -312 c61 -51 78 -78 51 -78 -17 0 -131 98 -135 116 -6 26 21 14 84
-38z m-181 8 c17 -13 28 -27 25 -29 -8 -9 -133 -11 -157 -3 -13 4 -23 12 -23
17 0 5 0 12 -1 17 0 10 39 20 86 21 28 1 49 -6 70 -23z m-180 -6 c0 -7 -6 -15
-12 -17 -8 -3 -13 4 -13 17 0 13 5 20 13 18 6 -3 12 -11 12 -18z m707 -19 c-3
-22 1 -30 15 -35 21 -7 43 -58 43 -99 0 -15 4 -27 9 -27 8 0 12 -12 27 -92 4
-18 11 -38 16 -45 13 -17 22 -179 13 -249 -11 -88 -23 -42 -24 94 -1 67 -5
112 -11 112 -15 0 -13 -270 2 -326 10 -36 22 -53 50 -72 21 -13 38 -31 38 -38
0 -11 -141 -103 -184 -120 -16 -6 -17 -2 -14 32 3 33 0 39 -18 42 -12 2 -38
19 -60 38 -29 27 -43 34 -62 29 -27 -7 -27 12 1 29 12 8 25 3 56 -22 22 -18
44 -32 49 -32 5 0 19 12 33 26 l24 26 5 311 c3 172 8 319 13 327 4 8 2 22 -3
30 -8 13 -12 12 -25 -6 -8 -12 -45 -36 -82 -53 -65 -31 -68 -31 -100 -16 -36
17 -39 38 -7 44 24 4 54 30 51 44 -2 12 108 74 134 76 12 1 14 -6 11 -28z
m-713 -541 c2 -405 2 -406 89 -487 47 -43 52 -51 29 -43 -47 17 -97 61 -118
103 -18 39 -19 64 -17 501 1 286 4 425 8 366 4 -52 8 -250 9 -440z m450 338
c-1 -62 -5 -124 -9 -138 -5 -15 -8 28 -9 113 -1 85 3 137 9 137 6 0 10 -44 9
-112z m-534 -336 c13 -13 20 17 25 121 5 80 7 30 8 -175 2 -214 -1 -288 -10
-288 -6 0 -20 -7 -30 -17 -17 -16 -18 -3 -16 378 1 374 1 383 9 190 4 -112 11
-206 14 -209z m555 -66 c0 -128 -2 -146 -20 -169 -11 -14 -20 -30 -20 -36 0
-6 -10 -11 -22 -11 -25 0 -138 109 -138 133 0 27 17 20 46 -18 27 -35 48 -47
38 -21 -6 17 33 66 53 66 8 0 18 -10 23 -22 7 -19 9 -15 9 22 2 94 14 209 22
204 5 -3 9 -70 9 -148z m710 6 c0 -66 3 -82 20 -97 30 -27 25 -45 -13 -45 -32
0 -33 0 -31 48 1 26 3 75 3 110 1 34 5 62 11 62 6 0 10 -33 10 -78z m-40 -66
c0 -3 -4 -8 -10 -11 -5 -3 -10 -1 -10 4 0 6 5 11 10 11 6 0 10 -2 10 -4z
m-690 -210 c0 -12 11 -33 25 -46 29 -27 55 -75 55 -101 0 -10 5 -21 10 -24 6
-3 10 -22 10 -41 0 -19 -4 -34 -10 -34 -5 0 -10 16 -10 35 0 19 -4 35 -10 35
-5 0 -10 12 -10 28 0 16 -8 32 -20 40 -16 10 -20 10 -20 -1 0 -8 -9 -22 -20
-32 -12 -11 -20 -13 -20 -6 0 7 -4 9 -10 6 -5 -3 -10 -26 -10 -50 0 -51 -8
-77 -21 -69 -16 10 2 156 22 186 11 15 19 43 19 68 0 25 4 39 10 35 6 -3 10
-16 10 -29z m710 0 c0 -14 5 -28 10 -31 6 -3 10 -17 10 -29 0 -39 28 -94 60
-118 40 -29 35 -53 -10 -54 -19 0 -52 -4 -72 -8 -33 -7 -38 -6 -38 10 0 11 13
34 29 53 38 44 30 56 -19 31 -48 -24 -57 -25 -64 -2 -12 36 56 172 86 172 4 0
8 -11 8 -24z m-730 -456 c0 -76 -4 -141 -9 -144 -9 -6 -19 101 -16 179 1 28 3
65 4 83 0 19 5 31 11 27 6 -4 10 -63 10 -145z"/>
<path d="M1880 1850 c0 -5 5 -10 11 -10 5 0 7 5 4 10 -3 6 -8 10 -11 10 -2 0
-4 -4 -4 -10z"/>
<path d="M1465 1840 c-3 -5 1 -10 10 -10 9 0 13 5 10 10 -3 6 -8 10 -10 10 -2
0 -7 -4 -10 -10z"/>
<path d="M1561 1147 c-15 -38 -14 -47 3 -41 20 8 28 33 17 52 -8 15 -11 13
-20 -11z"/>
</g>
</svg>
